<svg width="280" height="243" viewBox="0 0 280 243" fill="none" xmlns="http://www.w3.org/2000/svg">
<path d="M2.78711 213.092H2.89844C3.52344 213.092 4.03125 213.004 4.42188 212.828C4.8125 212.652 5.11328 212.416 5.32422 212.119C5.53516 211.822 5.67969 211.488 5.75781 211.117C5.83594 210.742 5.875 210.357 5.875 209.963V208.656C5.875 208.27 5.83008 207.926 5.74023 207.625C5.6543 207.324 5.5332 207.072 5.37695 206.869C5.22461 206.666 5.05078 206.512 4.85547 206.406C4.66016 206.301 4.45312 206.248 4.23438 206.248C3.98438 206.248 3.75977 206.299 3.56055 206.4C3.36523 206.498 3.19922 206.637 3.0625 206.816C2.92969 206.996 2.82812 207.207 2.75781 207.449C2.6875 207.691 2.65234 207.955 2.65234 208.24C2.65234 208.494 2.68359 208.74 2.74609 208.979C2.80859 209.217 2.9043 209.432 3.0332 209.623C3.16211 209.814 3.32227 209.967 3.51367 210.08C3.70898 210.189 3.9375 210.244 4.19922 210.244C4.44141 210.244 4.66797 210.197 4.87891 210.104C5.09375 210.006 5.2832 209.875 5.44727 209.711C5.61523 209.543 5.74805 209.354 5.8457 209.143C5.94727 208.932 6.00586 208.711 6.02148 208.48H6.53711C6.53711 208.805 6.47266 209.125 6.34375 209.441C6.21875 209.754 6.04297 210.039 5.81641 210.297C5.58984 210.555 5.32422 210.762 5.01953 210.918C4.71484 211.07 4.38281 211.146 4.02344 211.146C3.60156 211.146 3.23633 211.064 2.92773 210.9C2.61914 210.736 2.36523 210.518 2.16602 210.244C1.9707 209.971 1.82422 209.666 1.72656 209.33C1.63281 208.99 1.58594 208.646 1.58594 208.299C1.58594 207.893 1.64258 207.512 1.75586 207.156C1.86914 206.801 2.03711 206.488 2.25977 206.219C2.48242 205.945 2.75781 205.732 3.08594 205.58C3.41797 205.428 3.80078 205.352 4.23438 205.352C4.72266 205.352 5.13867 205.449 5.48242 205.645C5.82617 205.84 6.10547 206.102 6.32031 206.43C6.53906 206.758 6.69922 207.127 6.80078 207.537C6.90234 207.947 6.95312 208.369 6.95312 208.803V209.195C6.95312 209.637 6.92383 210.086 6.86523 210.543C6.81055 210.996 6.70312 211.43 6.54297 211.844C6.38672 212.258 6.1582 212.629 5.85742 212.957C5.55664 213.281 5.16406 213.539 4.67969 213.73C4.19922 213.918 3.60547 214.012 2.89844 214.012H2.78711V213.092ZM11.8867 210.654H9.60742V209.734H11.8867C12.3281 209.734 12.6855 209.664 12.959 209.523C13.2324 209.383 13.4316 209.188 13.5566 208.938C13.6855 208.688 13.75 208.402 13.75 208.082C13.75 207.789 13.6855 207.514 13.5566 207.256C13.4316 206.998 13.2324 206.791 12.959 206.635C12.6855 206.475 12.3281 206.395 11.8867 206.395H9.87109V214H8.74023V205.469H11.8867C12.5312 205.469 13.0762 205.58 13.5215 205.803C13.9668 206.025 14.3047 206.334 14.5352 206.729C14.7656 207.119 14.8809 207.566 14.8809 208.07C14.8809 208.617 14.7656 209.084 14.5352 209.471C14.3047 209.857 13.9668 210.152 13.5215 210.355C13.0762 210.555 12.5312 210.654 11.8867 210.654ZM16.668 205.469H17.7637L20.5586 212.424L23.3477 205.469H24.4492L20.9805 214H20.125L16.668 205.469ZM16.3105 205.469H17.2773L17.4355 210.672V214H16.3105V205.469ZM23.834 205.469H24.8008V214H23.6758V210.672L23.834 205.469Z" fill="#F8F6F2"/>
<path d="M133.299 213.109V214H127.715V213.221L130.51 210.109C130.854 209.727 131.119 209.402 131.307 209.137C131.498 208.867 131.631 208.627 131.705 208.416C131.783 208.201 131.822 207.982 131.822 207.76C131.822 207.479 131.764 207.225 131.646 206.998C131.533 206.768 131.365 206.584 131.143 206.447C130.92 206.311 130.65 206.242 130.334 206.242C129.955 206.242 129.639 206.316 129.385 206.465C129.135 206.609 128.947 206.812 128.822 207.074C128.697 207.336 128.635 207.637 128.635 207.977H127.551C127.551 207.496 127.656 207.057 127.867 206.658C128.078 206.26 128.391 205.943 128.805 205.709C129.219 205.471 129.729 205.352 130.334 205.352C130.873 205.352 131.334 205.447 131.717 205.639C132.1 205.826 132.393 206.092 132.596 206.436C132.803 206.775 132.906 207.174 132.906 207.631C132.906 207.881 132.863 208.135 132.777 208.393C132.695 208.646 132.58 208.9 132.432 209.154C132.287 209.408 132.117 209.658 131.922 209.904C131.73 210.15 131.525 210.393 131.307 210.631L129.021 213.109H133.299ZM137.898 206.225L135.074 214H133.92L137.172 205.469H137.916L137.898 206.225ZM140.266 214L137.436 206.225L137.418 205.469H138.162L141.426 214H140.266ZM140.119 210.842V211.768H135.326V210.842H140.119ZM142.926 205.469H144.021L146.816 212.424L149.605 205.469H150.707L147.238 214H146.383L142.926 205.469ZM142.568 205.469H143.535L143.693 210.672V214H142.568V205.469ZM150.092 205.469H151.059V214H149.934V210.672L150.092 205.469Z" fill="#F8F6F2"/>
<path d="M260.223 205.469V206.078L256.689 214H255.547L259.074 206.359H254.457V205.469H260.223ZM264.898 206.225L262.074 214H260.92L264.172 205.469H264.916L264.898 206.225ZM267.266 214L264.436 206.225L264.418 205.469H265.162L268.426 214H267.266ZM267.119 210.842V211.768H262.326V210.842H267.119ZM269.926 205.469H271.021L273.816 212.424L276.605 205.469H277.707L274.238 214H273.383L269.926 205.469ZM269.568 205.469H270.535L270.693 210.672V214H269.568V205.469ZM277.092 205.469H278.059V214H276.934V210.672L277.092 205.469Z" fill="#F8F6F2"/>
<line x1="267.5" y1="-2.18557e-08" x2="267.5" y2="184" stroke="#EBE6E0" stroke-dasharray="5 5"/>
<line x1="1" y1="191.5" x2="280" y2="191.5" stroke="#EBE6E0" stroke-opacity="0.4"/>
<line x1="16.5" y1="-2.18557e-08" x2="16.5" y2="152" stroke="#EBE6E0" stroke-dasharray="5 5"/>
<rect y="152" width="32" height="32" rx="8" fill="white" fill-opacity="0.08"/>
<path d="M22 167.185V165.332C22 164.232 21.1 163.332 20 163.332H17.3333C16.82 163.332 16.3533 163.532 16 163.852C15.6467 163.532 15.18 163.332 14.6667 163.332H12C10.9 163.332 10 164.232 10 165.332V167.185C9.59333 167.552 9.33333 168.079 9.33333 168.665V172.665H10.6667V171.332H21.3333V172.665H22.6667V168.665C22.6667 168.079 22.4067 167.552 22 167.185ZM17.3333 164.665H20C20.3667 164.665 20.6667 164.965 20.6667 165.332V166.665H16.6667V165.332C16.6667 164.965 16.9667 164.665 17.3333 164.665ZM11.3333 165.332C11.3333 164.965 11.6333 164.665 12 164.665H14.6667C15.0333 164.665 15.3333 164.965 15.3333 165.332V166.665H11.3333V165.332ZM10.6667 169.999V168.665C10.6667 168.299 10.9667 167.999 11.3333 167.999H20.6667C21.0333 167.999 21.3333 168.299 21.3333 168.665V169.999H10.6667Z" fill="white"/>
<path d="M5.53711 237.844C5.53711 237.645 5.50586 237.469 5.44336 237.316C5.38477 237.16 5.2793 237.02 5.12695 236.895C4.97852 236.77 4.77148 236.65 4.50586 236.537C4.24414 236.424 3.91211 236.309 3.50977 236.191C3.08789 236.066 2.70703 235.928 2.36719 235.775C2.02734 235.619 1.73633 235.441 1.49414 235.242C1.25195 235.043 1.06641 234.814 0.9375 234.557C0.808594 234.299 0.744141 234.004 0.744141 233.672C0.744141 233.34 0.8125 233.033 0.949219 232.752C1.08594 232.471 1.28125 232.227 1.53516 232.02C1.79297 231.809 2.09961 231.645 2.45508 231.527C2.81055 231.41 3.20703 231.352 3.64453 231.352C4.28516 231.352 4.82812 231.475 5.27344 231.721C5.72266 231.963 6.06445 232.281 6.29883 232.676C6.5332 233.066 6.65039 233.484 6.65039 233.93H5.52539C5.52539 233.609 5.45703 233.326 5.32031 233.08C5.18359 232.83 4.97656 232.635 4.69922 232.494C4.42188 232.35 4.07031 232.277 3.64453 232.277C3.24219 232.277 2.91016 232.338 2.64844 232.459C2.38672 232.58 2.19141 232.744 2.0625 232.951C1.9375 233.158 1.875 233.395 1.875 233.66C1.875 233.84 1.91211 234.004 1.98633 234.152C2.06445 234.297 2.18359 234.432 2.34375 234.557C2.50781 234.682 2.71484 234.797 2.96484 234.902C3.21875 235.008 3.52148 235.109 3.87305 235.207C4.35742 235.344 4.77539 235.496 5.12695 235.664C5.47852 235.832 5.76758 236.021 5.99414 236.232C6.22461 236.439 6.39453 236.676 6.50391 236.941C6.61719 237.203 6.67383 237.5 6.67383 237.832C6.67383 238.18 6.60352 238.494 6.46289 238.775C6.32227 239.057 6.12109 239.297 5.85938 239.496C5.59766 239.695 5.2832 239.85 4.91602 239.959C4.55273 240.064 4.14648 240.117 3.69727 240.117C3.30273 240.117 2.91406 240.062 2.53125 239.953C2.15234 239.844 1.80664 239.68 1.49414 239.461C1.18555 239.242 0.9375 238.973 0.75 238.652C0.566406 238.328 0.474609 237.953 0.474609 237.527H1.59961C1.59961 237.82 1.65625 238.072 1.76953 238.283C1.88281 238.49 2.03711 238.662 2.23242 238.799C2.43164 238.936 2.65625 239.037 2.90625 239.104C3.16016 239.166 3.42383 239.197 3.69727 239.197C4.0918 239.197 4.42578 239.143 4.69922 239.033C4.97266 238.924 5.17969 238.768 5.32031 238.564C5.46484 238.361 5.53711 238.121 5.53711 237.844ZM9.12891 231V240H8.03906V231H9.12891ZM13.5 240.117C13.0586 240.117 12.6582 240.043 12.2988 239.895C11.9434 239.742 11.6367 239.529 11.3789 239.256C11.125 238.982 10.9297 238.658 10.793 238.283C10.6562 237.908 10.5879 237.498 10.5879 237.053V236.807C10.5879 236.291 10.6641 235.832 10.8164 235.43C10.9688 235.023 11.1758 234.68 11.4375 234.398C11.6992 234.117 11.9961 233.904 12.3281 233.76C12.6602 233.615 13.0039 233.543 13.3594 233.543C13.8125 233.543 14.2031 233.621 14.5312 233.777C14.8633 233.934 15.1348 234.152 15.3457 234.434C15.5566 234.711 15.7129 235.039 15.8145 235.418C15.916 235.793 15.9668 236.203 15.9668 236.648V237.135H11.2324V236.25H14.8828V236.168C14.8672 235.887 14.8086 235.613 14.707 235.348C14.6094 235.082 14.4531 234.863 14.2383 234.691C14.0234 234.52 13.7305 234.434 13.3594 234.434C13.1133 234.434 12.8867 234.486 12.6797 234.592C12.4727 234.693 12.2949 234.846 12.1465 235.049C11.998 235.252 11.8828 235.5 11.8008 235.793C11.7188 236.086 11.6777 236.424 11.6777 236.807V237.053C11.6777 237.354 11.7188 237.637 11.8008 237.902C11.8867 238.164 12.0098 238.395 12.1699 238.594C12.334 238.793 12.5312 238.949 12.7617 239.062C12.9961 239.176 13.2617 239.232 13.5586 239.232C13.9414 239.232 14.2656 239.154 14.5312 238.998C14.7969 238.842 15.0293 238.633 15.2285 238.371L15.8848 238.893C15.748 239.1 15.5742 239.297 15.3633 239.484C15.1523 239.672 14.8926 239.824 14.584 239.941C14.2793 240.059 13.918 240.117 13.5 240.117ZM18.3164 234.879V242.438H17.2266V233.66H18.2227L18.3164 234.879ZM22.5879 236.777V236.9C22.5879 237.361 22.5332 237.789 22.4238 238.184C22.3145 238.574 22.1543 238.914 21.9434 239.203C21.7363 239.492 21.4805 239.717 21.1758 239.877C20.8711 240.037 20.5215 240.117 20.127 240.117C19.7246 240.117 19.3691 240.051 19.0605 239.918C18.752 239.785 18.4902 239.592 18.2754 239.338C18.0605 239.084 17.8887 238.779 17.7598 238.424C17.6348 238.068 17.5488 237.668 17.502 237.223V236.566C17.5488 236.098 17.6367 235.678 17.7656 235.307C17.8945 234.936 18.0645 234.619 18.2754 234.357C18.4902 234.092 18.75 233.891 19.0547 233.754C19.3594 233.613 19.7109 233.543 20.1094 233.543C20.5078 233.543 20.8613 233.621 21.1699 233.777C21.4785 233.93 21.7383 234.148 21.9492 234.434C22.1602 234.719 22.3184 235.061 22.4238 235.459C22.5332 235.854 22.5879 236.293 22.5879 236.777ZM21.498 236.9V236.777C21.498 236.461 21.4648 236.164 21.3984 235.887C21.332 235.605 21.2285 235.359 21.0879 235.148C20.9512 234.934 20.7754 234.766 20.5605 234.645C20.3457 234.52 20.0898 234.457 19.793 234.457C19.5195 234.457 19.2812 234.504 19.0781 234.598C18.8789 234.691 18.709 234.818 18.5684 234.979C18.4277 235.135 18.3125 235.314 18.2227 235.518C18.1367 235.717 18.0723 235.924 18.0293 236.139V237.656C18.1074 237.93 18.2168 238.188 18.3574 238.43C18.498 238.668 18.6855 238.861 18.9199 239.01C19.1543 239.154 19.4492 239.227 19.8047 239.227C20.0977 239.227 20.3496 239.166 20.5605 239.045C20.7754 238.92 20.9512 238.75 21.0879 238.535C21.2285 238.32 21.332 238.074 21.3984 237.797C21.4648 237.516 21.498 237.217 21.498 236.9ZM26.625 233.66V234.492H23.1973V233.66H26.625ZM24.3574 232.119H25.4414V238.43C25.4414 238.645 25.4746 238.807 25.541 238.916C25.6074 239.025 25.6934 239.098 25.7988 239.133C25.9043 239.168 26.0176 239.186 26.1387 239.186C26.2285 239.186 26.3223 239.178 26.4199 239.162C26.5215 239.143 26.5977 239.127 26.6484 239.115L26.6543 240C26.5684 240.027 26.4551 240.053 26.3145 240.076C26.1777 240.104 26.0117 240.117 25.8164 240.117C25.5508 240.117 25.3066 240.064 25.084 239.959C24.8613 239.854 24.6836 239.678 24.5508 239.432C24.4219 239.182 24.3574 238.846 24.3574 238.424V232.119ZM30.8613 235.711V235.471C30.8613 235.135 30.9668 234.857 31.1777 234.639C31.3926 234.42 31.6836 234.311 32.0508 234.311C32.4219 234.311 32.7148 234.42 32.9297 234.639C33.1445 234.857 33.252 235.135 33.252 235.471V235.711C33.252 236.043 33.1445 236.318 32.9297 236.537C32.7188 236.752 32.4277 236.859 32.0566 236.859C31.6895 236.859 31.3984 236.752 31.1836 236.537C30.9688 236.318 30.8613 236.043 30.8613 235.711ZM43.166 237.691C43.166 238.211 43.0449 238.652 42.8027 239.016C42.5645 239.375 42.2402 239.648 41.8301 239.836C41.4238 240.023 40.9648 240.117 40.4531 240.117C39.9414 240.117 39.4805 240.023 39.0703 239.836C38.6602 239.648 38.3359 239.375 38.0977 239.016C37.8594 238.652 37.7402 238.211 37.7402 237.691C37.7402 237.352 37.8047 237.041 37.9336 236.76C38.0664 236.475 38.252 236.227 38.4902 236.016C38.7324 235.805 39.0176 235.643 39.3457 235.529C39.6777 235.412 40.043 235.354 40.4414 235.354C40.9648 235.354 41.4316 235.455 41.8418 235.658C42.252 235.857 42.5742 236.133 42.8086 236.484C43.0469 236.836 43.166 237.238 43.166 237.691ZM42.0762 237.668C42.0762 237.352 42.0078 237.072 41.8711 236.83C41.7344 236.584 41.543 236.393 41.2969 236.256C41.0508 236.119 40.7656 236.051 40.4414 236.051C40.1094 236.051 39.8223 236.119 39.5801 236.256C39.3418 236.393 39.1562 236.584 39.0234 236.83C38.8906 237.072 38.8242 237.352 38.8242 237.668C38.8242 237.996 38.8887 238.277 39.0176 238.512C39.1504 238.742 39.3379 238.92 39.5801 239.045C39.8262 239.166 40.1172 239.227 40.4531 239.227C40.7891 239.227 41.0781 239.166 41.3203 239.045C41.5625 238.92 41.748 238.742 41.877 238.512C42.0098 238.277 42.0762 237.996 42.0762 237.668ZM42.9668 233.689C42.9668 234.104 42.8574 234.477 42.6387 234.809C42.4199 235.141 42.1211 235.402 41.7422 235.594C41.3633 235.785 40.9336 235.881 40.4531 235.881C39.9648 235.881 39.5293 235.785 39.1465 235.594C38.7676 235.402 38.4707 235.141 38.2559 234.809C38.041 234.477 37.9336 234.104 37.9336 233.689C37.9336 233.193 38.041 232.771 38.2559 232.424C38.4746 232.076 38.7734 231.811 39.1523 231.627C39.5312 231.443 39.9629 231.352 40.4473 231.352C40.9355 231.352 41.3691 231.443 41.748 231.627C42.127 231.811 42.4238 232.076 42.6387 232.424C42.8574 232.771 42.9668 233.193 42.9668 233.689ZM41.8828 233.707C41.8828 233.422 41.8223 233.17 41.7012 232.951C41.5801 232.732 41.4121 232.561 41.1973 232.436C40.9824 232.307 40.7324 232.242 40.4473 232.242C40.1621 232.242 39.9121 232.303 39.6973 232.424C39.4863 232.541 39.3203 232.709 39.1992 232.928C39.082 233.146 39.0234 233.406 39.0234 233.707C39.0234 234 39.082 234.256 39.1992 234.475C39.3203 234.693 39.4883 234.863 39.7031 234.984C39.918 235.105 40.168 235.166 40.4531 235.166C40.7383 235.166 40.9863 235.105 41.1973 234.984C41.4121 234.863 41.5801 234.693 41.7012 234.475C41.8223 234.256 41.8828 234 41.8828 233.707ZM48.7148 231V240H47.6309V231H48.7148ZM48.457 236.59L48.0059 236.572C48.0098 236.139 48.0742 235.738 48.1992 235.371C48.3242 235 48.5 234.678 48.7266 234.404C48.9531 234.131 49.2227 233.92 49.5352 233.771C49.8516 233.619 50.2012 233.543 50.584 233.543C50.8965 233.543 51.1777 233.586 51.4277 233.672C51.6777 233.754 51.8906 233.887 52.0664 234.07C52.2461 234.254 52.3828 234.492 52.4766 234.785C52.5703 235.074 52.6172 235.428 52.6172 235.846V240H51.5273V235.834C51.5273 235.502 51.4785 235.236 51.3809 235.037C51.2832 234.834 51.1406 234.688 50.9531 234.598C50.7656 234.504 50.5352 234.457 50.2617 234.457C49.9922 234.457 49.7461 234.514 49.5234 234.627C49.3047 234.74 49.1152 234.896 48.9551 235.096C48.7988 235.295 48.6758 235.523 48.5859 235.781C48.5 236.035 48.457 236.305 48.457 236.59ZM53.9531 236.9V236.766C53.9531 236.309 54.0195 235.885 54.1523 235.494C54.2852 235.1 54.4766 234.758 54.7266 234.469C54.9766 234.176 55.2793 233.949 55.6348 233.789C55.9902 233.625 56.3887 233.543 56.8301 233.543C57.2754 233.543 57.6758 233.625 58.0312 233.789C58.3906 233.949 58.6953 234.176 58.9453 234.469C59.1992 234.758 59.3926 235.1 59.5254 235.494C59.6582 235.885 59.7246 236.309 59.7246 236.766V236.9C59.7246 237.357 59.6582 237.781 59.5254 238.172C59.3926 238.562 59.1992 238.904 58.9453 239.197C58.6953 239.486 58.3926 239.713 58.0371 239.877C57.6855 240.037 57.2871 240.117 56.8418 240.117C56.3965 240.117 55.9961 240.037 55.6406 239.877C55.2852 239.713 54.9805 239.486 54.7266 239.197C54.4766 238.904 54.2852 238.562 54.1523 238.172C54.0195 237.781 53.9531 237.357 53.9531 236.9ZM55.0371 236.766V236.9C55.0371 237.217 55.0742 237.516 55.1484 237.797C55.2227 238.074 55.334 238.32 55.4824 238.535C55.6348 238.75 55.8242 238.92 56.0508 239.045C56.2773 239.166 56.541 239.227 56.8418 239.227C57.1387 239.227 57.3984 239.166 57.6211 239.045C57.8477 238.92 58.0352 238.75 58.1836 238.535C58.332 238.32 58.4434 238.074 58.5176 237.797C58.5957 237.516 58.6348 237.217 58.6348 236.9V236.766C58.6348 236.453 58.5957 236.158 58.5176 235.881C58.4434 235.6 58.3301 235.352 58.1777 235.137C58.0293 234.918 57.8418 234.746 57.6152 234.621C57.3926 234.496 57.1309 234.434 56.8301 234.434C56.5332 234.434 56.2715 234.496 56.0449 234.621C55.8223 234.746 55.6348 234.918 55.4824 235.137C55.334 235.352 55.2227 235.6 55.1484 235.881C55.0742 236.158 55.0371 236.453 55.0371 236.766ZM64.9629 238.535V233.66H66.0527V240H65.0156L64.9629 238.535ZM65.168 237.199L65.6191 237.188C65.6191 237.609 65.5742 238 65.4844 238.359C65.3984 238.715 65.2578 239.023 65.0625 239.285C64.8672 239.547 64.6113 239.752 64.2949 239.9C63.9785 240.045 63.5938 240.117 63.1406 240.117C62.832 240.117 62.5488 240.072 62.291 239.982C62.0371 239.893 61.8184 239.754 61.6348 239.566C61.4512 239.379 61.3086 239.135 61.207 238.834C61.1094 238.533 61.0605 238.172 61.0605 237.75V233.66H62.1445V237.762C62.1445 238.047 62.1758 238.283 62.2383 238.471C62.3047 238.654 62.3926 238.801 62.502 238.91C62.6152 239.016 62.7402 239.09 62.877 239.133C63.0176 239.176 63.1621 239.197 63.3105 239.197C63.7715 239.197 64.1367 239.109 64.4062 238.934C64.6758 238.754 64.8691 238.514 64.9863 238.213C65.1074 237.908 65.168 237.57 65.168 237.199ZM68.7891 234.656V240H67.7051V233.66H68.7598L68.7891 234.656ZM70.7695 233.625L70.7637 234.633C70.6738 234.613 70.5879 234.602 70.5059 234.598C70.4277 234.59 70.3379 234.586 70.2363 234.586C69.9863 234.586 69.7656 234.625 69.5742 234.703C69.3828 234.781 69.2207 234.891 69.0879 235.031C68.9551 235.172 68.8496 235.34 68.7715 235.535C68.6973 235.727 68.6484 235.938 68.625 236.168L68.3203 236.344C68.3203 235.961 68.3574 235.602 68.4316 235.266C68.5098 234.93 68.6289 234.633 68.7891 234.375C68.9492 234.113 69.1523 233.91 69.3984 233.766C69.6484 233.617 69.9453 233.543 70.2891 233.543C70.3672 233.543 70.457 233.553 70.5586 233.572C70.6602 233.588 70.7305 233.605 70.7695 233.625ZM75.4629 238.318C75.4629 238.162 75.4277 238.018 75.3574 237.885C75.291 237.748 75.1523 237.625 74.9414 237.516C74.7344 237.402 74.4219 237.305 74.0039 237.223C73.6523 237.148 73.334 237.061 73.0488 236.959C72.7676 236.857 72.5273 236.734 72.3281 236.59C72.1328 236.445 71.9824 236.275 71.877 236.08C71.7715 235.885 71.7188 235.656 71.7188 235.395C71.7188 235.145 71.7734 234.908 71.8828 234.686C71.9961 234.463 72.1543 234.266 72.3574 234.094C72.5645 233.922 72.8125 233.787 73.1016 233.689C73.3906 233.592 73.7129 233.543 74.0684 233.543C74.5762 233.543 75.0098 233.633 75.3691 233.812C75.7285 233.992 76.0039 234.232 76.1953 234.533C76.3867 234.83 76.4824 235.16 76.4824 235.523H75.3984C75.3984 235.348 75.3457 235.178 75.2402 235.014C75.1387 234.846 74.9883 234.707 74.7891 234.598C74.5938 234.488 74.3535 234.434 74.0684 234.434C73.7676 234.434 73.5234 234.48 73.3359 234.574C73.1523 234.664 73.0176 234.779 72.9316 234.92C72.8496 235.061 72.8086 235.209 72.8086 235.365C72.8086 235.482 72.8281 235.588 72.8672 235.682C72.9102 235.771 72.9844 235.855 73.0898 235.934C73.1953 236.008 73.3438 236.078 73.5352 236.145C73.7266 236.211 73.9707 236.277 74.2676 236.344C74.7871 236.461 75.2148 236.602 75.5508 236.766C75.8867 236.93 76.1367 237.131 76.3008 237.369C76.4648 237.607 76.5469 237.896 76.5469 238.236C76.5469 238.514 76.4883 238.768 76.3711 238.998C76.2578 239.229 76.0918 239.428 75.873 239.596C75.6582 239.76 75.4004 239.889 75.0996 239.982C74.8027 240.072 74.4688 240.117 74.0977 240.117C73.5391 240.117 73.0664 240.018 72.6797 239.818C72.293 239.619 72 239.361 71.8008 239.045C71.6016 238.729 71.502 238.395 71.502 238.043H72.5918C72.6074 238.34 72.6934 238.576 72.8496 238.752C73.0059 238.924 73.1973 239.047 73.4238 239.121C73.6504 239.191 73.875 239.227 74.0977 239.227C74.3945 239.227 74.6426 239.188 74.8418 239.109C75.0449 239.031 75.1992 238.924 75.3047 238.787C75.4102 238.65 75.4629 238.494 75.4629 238.318ZM82.4121 235.201H83.1855C83.5645 235.201 83.877 235.139 84.123 235.014C84.373 234.885 84.5586 234.711 84.6797 234.492C84.8047 234.27 84.8672 234.02 84.8672 233.742C84.8672 233.414 84.8125 233.139 84.7031 232.916C84.5938 232.693 84.4297 232.525 84.2109 232.412C83.9922 232.299 83.7148 232.242 83.3789 232.242C83.0742 232.242 82.8047 232.303 82.5703 232.424C82.3398 232.541 82.1582 232.709 82.0254 232.928C81.8965 233.146 81.832 233.404 81.832 233.701H80.748C80.748 233.268 80.8574 232.873 81.0762 232.518C81.2949 232.162 81.6016 231.879 81.9961 231.668C82.3945 231.457 82.8555 231.352 83.3789 231.352C83.8945 231.352 84.3457 231.443 84.7324 231.627C85.1191 231.807 85.4199 232.076 85.6348 232.436C85.8496 232.791 85.957 233.234 85.957 233.766C85.957 233.98 85.9062 234.211 85.8047 234.457C85.707 234.699 85.5527 234.926 85.3418 235.137C85.1348 235.348 84.8652 235.521 84.5332 235.658C84.2012 235.791 83.8027 235.857 83.3379 235.857H82.4121V235.201ZM82.4121 236.092V235.441H83.3379C83.8809 235.441 84.3301 235.506 84.6855 235.635C85.041 235.764 85.3203 235.936 85.5234 236.15C85.7305 236.365 85.875 236.602 85.957 236.859C86.043 237.113 86.0859 237.367 86.0859 237.621C86.0859 238.02 86.0176 238.373 85.8809 238.682C85.748 238.99 85.5586 239.252 85.3125 239.467C85.0703 239.682 84.7852 239.844 84.457 239.953C84.1289 240.062 83.7715 240.117 83.3848 240.117C83.0137 240.117 82.6641 240.064 82.3359 239.959C82.0117 239.854 81.7246 239.701 81.4746 239.502C81.2246 239.299 81.0293 239.051 80.8887 238.758C80.748 238.461 80.6777 238.123 80.6777 237.744H81.7617C81.7617 238.041 81.8262 238.301 81.9551 238.523C82.0879 238.746 82.2754 238.92 82.5176 239.045C82.7637 239.166 83.0527 239.227 83.3848 239.227C83.7168 239.227 84.002 239.17 84.2402 239.057C84.4824 238.939 84.668 238.764 84.7969 238.529C84.9297 238.295 84.9961 238 84.9961 237.645C84.9961 237.289 84.9219 236.998 84.7734 236.771C84.625 236.541 84.4141 236.371 84.1406 236.262C83.8711 236.148 83.5527 236.092 83.1855 236.092H82.4121ZM92.9355 235.055V236.355C92.9355 237.055 92.873 237.645 92.748 238.125C92.623 238.605 92.4434 238.992 92.209 239.285C91.9746 239.578 91.6914 239.791 91.3594 239.924C91.0312 240.053 90.6602 240.117 90.2461 240.117C89.918 240.117 89.6152 240.076 89.3379 239.994C89.0605 239.912 88.8105 239.781 88.5879 239.602C88.3691 239.418 88.1816 239.18 88.0254 238.887C87.8691 238.594 87.75 238.238 87.668 237.82C87.5859 237.402 87.5449 236.914 87.5449 236.355V235.055C87.5449 234.355 87.6074 233.77 87.7324 233.297C87.8613 232.824 88.043 232.445 88.2773 232.16C88.5117 231.871 88.793 231.664 89.1211 231.539C89.4531 231.414 89.8242 231.352 90.2344 231.352C90.5664 231.352 90.8711 231.393 91.1484 231.475C91.4297 231.553 91.6797 231.68 91.8984 231.855C92.1172 232.027 92.3027 232.258 92.4551 232.547C92.6113 232.832 92.7305 233.182 92.8125 233.596C92.8945 234.01 92.9355 234.496 92.9355 235.055ZM91.8457 236.531V234.873C91.8457 234.49 91.8223 234.154 91.7754 233.865C91.7324 233.572 91.668 233.322 91.582 233.115C91.4961 232.908 91.3867 232.74 91.2539 232.611C91.125 232.482 90.9746 232.389 90.8027 232.33C90.6348 232.268 90.4453 232.236 90.2344 232.236C89.9766 232.236 89.748 232.285 89.5488 232.383C89.3496 232.477 89.1816 232.627 89.0449 232.834C88.9121 233.041 88.8105 233.312 88.7402 233.648C88.6699 233.984 88.6348 234.393 88.6348 234.873V236.531C88.6348 236.914 88.6562 237.252 88.6992 237.545C88.7461 237.838 88.8145 238.092 88.9043 238.307C88.9941 238.518 89.1035 238.691 89.2324 238.828C89.3613 238.965 89.5098 239.066 89.6777 239.133C89.8496 239.195 90.0391 239.227 90.2461 239.227C90.5117 239.227 90.7441 239.176 90.9434 239.074C91.1426 238.973 91.3086 238.814 91.4414 238.6C91.5781 238.381 91.6797 238.102 91.7461 237.762C91.8125 237.418 91.8457 237.008 91.8457 236.531ZM98.502 234.92V240H97.4121V233.66H98.4434L98.502 234.92ZM98.2793 236.59L97.7754 236.572C97.7793 236.139 97.8359 235.738 97.9453 235.371C98.0547 235 98.2168 234.678 98.4316 234.404C98.6465 234.131 98.9141 233.92 99.2344 233.771C99.5547 233.619 99.9258 233.543 100.348 233.543C100.645 233.543 100.918 233.586 101.168 233.672C101.418 233.754 101.635 233.885 101.818 234.064C102.002 234.244 102.145 234.475 102.246 234.756C102.348 235.037 102.398 235.377 102.398 235.775V240H101.314V235.828C101.314 235.496 101.258 235.23 101.145 235.031C101.035 234.832 100.879 234.688 100.676 234.598C100.473 234.504 100.234 234.457 99.9609 234.457C99.6406 234.457 99.373 234.514 99.1582 234.627C98.9434 234.74 98.7715 234.896 98.6426 235.096C98.5137 235.295 98.4199 235.523 98.3613 235.781C98.3066 236.035 98.2793 236.305 98.2793 236.59ZM102.387 235.992L101.66 236.215C101.664 235.867 101.721 235.533 101.83 235.213C101.943 234.893 102.105 234.607 102.316 234.357C102.531 234.107 102.795 233.91 103.107 233.766C103.42 233.617 103.777 233.543 104.18 233.543C104.52 233.543 104.82 233.588 105.082 233.678C105.348 233.768 105.57 233.906 105.75 234.094C105.934 234.277 106.072 234.514 106.166 234.803C106.26 235.092 106.307 235.436 106.307 235.834V240H105.217V235.822C105.217 235.467 105.16 235.191 105.047 234.996C104.938 234.797 104.781 234.658 104.578 234.58C104.379 234.498 104.141 234.457 103.863 234.457C103.625 234.457 103.414 234.498 103.23 234.58C103.047 234.662 102.893 234.775 102.768 234.92C102.643 235.061 102.547 235.223 102.48 235.406C102.418 235.59 102.387 235.785 102.387 235.992ZM109.125 233.66V240H108.035V233.66H109.125ZM107.953 231.979C107.953 231.803 108.006 231.654 108.111 231.533C108.221 231.412 108.381 231.352 108.592 231.352C108.799 231.352 108.957 231.412 109.066 231.533C109.18 231.654 109.236 231.803 109.236 231.979C109.236 232.146 109.18 232.291 109.066 232.412C108.957 232.529 108.799 232.588 108.592 232.588C108.381 232.588 108.221 232.529 108.111 232.412C108.006 232.291 107.953 232.146 107.953 231.979ZM111.949 235.014V240H110.865V233.66H111.891L111.949 235.014ZM111.691 236.59L111.24 236.572C111.244 236.139 111.309 235.738 111.434 235.371C111.559 235 111.734 234.678 111.961 234.404C112.188 234.131 112.457 233.92 112.77 233.771C113.086 233.619 113.436 233.543 113.818 233.543C114.131 233.543 114.412 233.586 114.662 233.672C114.912 233.754 115.125 233.887 115.301 234.07C115.48 234.254 115.617 234.492 115.711 234.785C115.805 235.074 115.852 235.428 115.852 235.846V240H114.762V235.834C114.762 235.502 114.713 235.236 114.615 235.037C114.518 234.834 114.375 234.688 114.188 234.598C114 234.504 113.77 234.457 113.496 234.457C113.227 234.457 112.98 234.514 112.758 234.627C112.539 234.74 112.35 234.896 112.189 235.096C112.033 235.295 111.91 235.523 111.82 235.781C111.734 236.035 111.691 236.305 111.691 236.59ZM121.377 238.535V233.66H122.467V240H121.43L121.377 238.535ZM121.582 237.199L122.033 237.188C122.033 237.609 121.988 238 121.898 238.359C121.812 238.715 121.672 239.023 121.477 239.285C121.281 239.547 121.025 239.752 120.709 239.9C120.393 240.045 120.008 240.117 119.555 240.117C119.246 240.117 118.963 240.072 118.705 239.982C118.451 239.893 118.232 239.754 118.049 239.566C117.865 239.379 117.723 239.135 117.621 238.834C117.523 238.533 117.475 238.172 117.475 237.75V233.66H118.559V237.762C118.559 238.047 118.59 238.283 118.652 238.471C118.719 238.654 118.807 238.801 118.916 238.91C119.029 239.016 119.154 239.09 119.291 239.133C119.432 239.176 119.576 239.197 119.725 239.197C120.186 239.197 120.551 239.109 120.82 238.934C121.09 238.754 121.283 238.514 121.4 238.213C121.521 237.908 121.582 237.57 121.582 237.199ZM126.773 233.66V234.492H123.346V233.66H126.773ZM124.506 232.119H125.59V238.43C125.59 238.645 125.623 238.807 125.689 238.916C125.756 239.025 125.842 239.098 125.947 239.133C126.053 239.168 126.166 239.186 126.287 239.186C126.377 239.186 126.471 239.178 126.568 239.162C126.67 239.143 126.746 239.127 126.797 239.115L126.803 240C126.717 240.027 126.604 240.053 126.463 240.076C126.326 240.104 126.16 240.117 125.965 240.117C125.699 240.117 125.455 240.064 125.232 239.959C125.01 239.854 124.832 239.678 124.699 239.432C124.57 239.182 124.506 238.846 124.506 238.424V232.119ZM130.676 240.117C130.234 240.117 129.834 240.043 129.475 239.895C129.119 239.742 128.812 239.529 128.555 239.256C128.301 238.982 128.105 238.658 127.969 238.283C127.832 237.908 127.764 237.498 127.764 237.053V236.807C127.764 236.291 127.84 235.832 127.992 235.43C128.145 235.023 128.352 234.68 128.613 234.398C128.875 234.117 129.172 233.904 129.504 233.76C129.836 233.615 130.18 233.543 130.535 233.543C130.988 233.543 131.379 233.621 131.707 233.777C132.039 233.934 132.311 234.152 132.521 234.434C132.732 234.711 132.889 235.039 132.99 235.418C133.092 235.793 133.143 236.203 133.143 236.648V237.135H128.408V236.25H132.059V236.168C132.043 235.887 131.984 235.613 131.883 235.348C131.785 235.082 131.629 234.863 131.414 234.691C131.199 234.52 130.906 234.434 130.535 234.434C130.289 234.434 130.062 234.486 129.855 234.592C129.648 234.693 129.471 234.846 129.322 235.049C129.174 235.252 129.059 235.5 128.977 235.793C128.895 236.086 128.854 236.424 128.854 236.807V237.053C128.854 237.354 128.895 237.637 128.977 237.902C129.062 238.164 129.186 238.395 129.346 238.594C129.51 238.793 129.707 238.949 129.938 239.062C130.172 239.176 130.438 239.232 130.734 239.232C131.117 239.232 131.441 239.154 131.707 238.998C131.973 238.842 132.205 238.633 132.404 238.371L133.061 238.893C132.924 239.1 132.75 239.297 132.539 239.484C132.328 239.672 132.068 239.824 131.76 239.941C131.455 240.059 131.094 240.117 130.676 240.117ZM138.1 238.318C138.1 238.162 138.064 238.018 137.994 237.885C137.928 237.748 137.789 237.625 137.578 237.516C137.371 237.402 137.059 237.305 136.641 237.223C136.289 237.148 135.971 237.061 135.686 236.959C135.404 236.857 135.164 236.734 134.965 236.59C134.77 236.445 134.619 236.275 134.514 236.08C134.408 235.885 134.355 235.656 134.355 235.395C134.355 235.145 134.41 234.908 134.52 234.686C134.633 234.463 134.791 234.266 134.994 234.094C135.201 233.922 135.449 233.787 135.738 233.689C136.027 233.592 136.35 233.543 136.705 233.543C137.213 233.543 137.646 233.633 138.006 233.812C138.365 233.992 138.641 234.232 138.832 234.533C139.023 234.83 139.119 235.16 139.119 235.523H138.035C138.035 235.348 137.982 235.178 137.877 235.014C137.775 234.846 137.625 234.707 137.426 234.598C137.23 234.488 136.99 234.434 136.705 234.434C136.404 234.434 136.16 234.48 135.973 234.574C135.789 234.664 135.654 234.779 135.568 234.92C135.486 235.061 135.445 235.209 135.445 235.365C135.445 235.482 135.465 235.588 135.504 235.682C135.547 235.771 135.621 235.855 135.727 235.934C135.832 236.008 135.98 236.078 136.172 236.145C136.363 236.211 136.607 236.277 136.904 236.344C137.424 236.461 137.852 236.602 138.188 236.766C138.523 236.93 138.773 237.131 138.938 237.369C139.102 237.607 139.184 237.896 139.184 238.236C139.184 238.514 139.125 238.768 139.008 238.998C138.895 239.229 138.729 239.428 138.51 239.596C138.295 239.76 138.037 239.889 137.736 239.982C137.439 240.072 137.105 240.117 136.734 240.117C136.176 240.117 135.703 240.018 135.316 239.818C134.93 239.619 134.637 239.361 134.438 239.045C134.238 238.729 134.139 238.395 134.139 238.043H135.229C135.244 238.34 135.33 238.576 135.486 238.752C135.643 238.924 135.834 239.047 136.061 239.121C136.287 239.191 136.512 239.227 136.734 239.227C137.031 239.227 137.279 239.188 137.479 239.109C137.682 239.031 137.836 238.924 137.941 238.787C138.047 238.65 138.1 238.494 138.1 238.318Z" fill="white"/>
<g filter="url(#filter0_d_7138_80076)">
<circle cx="247" cy="133" r="3" transform="rotate(180 247 133)" fill="#F8F6F2"/>
</g>
<g filter="url(#filter1_d_7138_80076)">
<circle cx="235" cy="124" r="3" transform="rotate(180 235 124)" fill="#F8F6F2"/>
</g>
<g filter="url(#filter2_d_7138_80076)">
<circle cx="209" cy="106" r="3" transform="rotate(180 209 106)" fill="#F8F6F2"/>
</g>
<g filter="url(#filter3_d_7138_80076)">
<circle cx="196" cy="98" r="3" transform="rotate(180 196 98)" fill="#F8F6F2"/>
</g>
<g filter="url(#filter4_d_7138_80076)">
<circle cx="183" cy="95" r="3" transform="rotate(180 183 95)" fill="#F8F6F2"/>
</g>
<g filter="url(#filter5_d_7138_80076)">
<circle cx="167" cy="104" r="3" transform="rotate(180 167 104)" fill="#F8F6F2"/>
</g>
<g filter="url(#filter6_d_7138_80076)">
<circle cx="155" cy="104" r="3" transform="rotate(180 155 104)" fill="#F8F6F2"/>
</g>
<g filter="url(#filter7_d_7138_80076)">
<circle cx="141" cy="112" r="3" transform="rotate(180 141 112)" fill="#F8F6F2"/>
</g>
<g filter="url(#filter8_d_7138_80076)">
<circle cx="126" cy="107" r="3" transform="rotate(180 126 107)" fill="#F8F6F2"/>
</g>
<g filter="url(#filter9_d_7138_80076)">
<circle cx="66" cy="107" r="3" transform="rotate(180 66 107)" fill="#F8F6F2"/>
</g>
<g filter="url(#filter10_d_7138_80076)">
<circle cx="111" cy="100" r="3" transform="rotate(180 111 100)" fill="#F8F6F2"/>
</g>
<g filter="url(#filter11_d_7138_80076)">
<circle cx="51" cy="100" r="3" transform="rotate(180 51 100)" fill="#F8F6F2"/>
</g>
<g filter="url(#filter12_d_7138_80076)">
<circle cx="35" cy="109" r="3" transform="rotate(180 35 109)" fill="#F8F6F2"/>
</g>
<g filter="url(#filter13_d_7138_80076)">
<circle cx="23" cy="101" r="3" transform="rotate(180 23 101)" fill="#F8F6F2"/>
</g>
<g filter="url(#filter14_d_7138_80076)">
<circle cx="95" cy="103" r="3" transform="rotate(180 95 103)" fill="#F8F6F2"/>
</g>
<g filter="url(#filter15_d_7138_80076)">
<circle cx="79" cy="101" r="3" transform="rotate(180 79 101)" fill="#F8F6F2"/>
</g>
<g filter="url(#filter16_d_7138_80076)">
<circle cx="221" cy="112" r="3" transform="rotate(180 221 112)" fill="#F8F6F2"/>
</g>
<g filter="url(#filter17_d_7138_80076)">
<circle cx="259" cy="142" r="3" transform="rotate(180 259 142)" fill="#F8F6F2"/>
</g>
<defs>
<filter id="filter0_d_7138_80076" x="242.046" y="128.046" width="9.90764" height="9.90764" filterUnits="userSpaceOnUse" color-interpolation-filters="sRGB">
<feFlood flood-opacity="0" result="BackgroundImageFix"/>
<feColorMatrix in="SourceAlpha" type="matrix" values="0 0 0 0 0 0 0 0 0 0 0 0 0 0 0 0 0 0 127 0" result="hardAlpha"/>
<feOffset/>
<feGaussianBlur stdDeviation="0.976909"/>
<feComposite in2="hardAlpha" operator="out"/>
<feColorMatrix type="matrix" values="0 0 0 0 0 0 0 0 0 0 0 0 0 0 0 0 0 0 0.05 0"/>
<feBlend mode="normal" in2="BackgroundImageFix" result="effect1_dropShadow_7138_80076"/>
<feBlend mode="normal" in="SourceGraphic" in2="effect1_dropShadow_7138_80076" result="shape"/>
</filter>
<filter id="filter1_d_7138_80076" x="230.046" y="119.046" width="9.90764" height="9.90764" filterUnits="userSpaceOnUse" color-interpolation-filters="sRGB">
<feFlood flood-opacity="0" result="BackgroundImageFix"/>
<feColorMatrix in="SourceAlpha" type="matrix" values="0 0 0 0 0 0 0 0 0 0 0 0 0 0 0 0 0 0 127 0" result="hardAlpha"/>
<feOffset/>
<feGaussianBlur stdDeviation="0.976909"/>
<feComposite in2="hardAlpha" operator="out"/>
<feColorMatrix type="matrix" values="0 0 0 0 0 0 0 0 0 0 0 0 0 0 0 0 0 0 0.05 0"/>
<feBlend mode="normal" in2="BackgroundImageFix" result="effect1_dropShadow_7138_80076"/>
<feBlend mode="normal" in="SourceGraphic" in2="effect1_dropShadow_7138_80076" result="shape"/>
</filter>
<filter id="filter2_d_7138_80076" x="204.046" y="101.046" width="9.90764" height="9.90764" filterUnits="userSpaceOnUse" color-interpolation-filters="sRGB">
<feFlood flood-opacity="0" result="BackgroundImageFix"/>
<feColorMatrix in="SourceAlpha" type="matrix" values="0 0 0 0 0 0 0 0 0 0 0 0 0 0 0 0 0 0 127 0" result="hardAlpha"/>
<feOffset/>
<feGaussianBlur stdDeviation="0.976909"/>
<feComposite in2="hardAlpha" operator="out"/>
<feColorMatrix type="matrix" values="0 0 0 0 0 0 0 0 0 0 0 0 0 0 0 0 0 0 0.05 0"/>
<feBlend mode="normal" in2="BackgroundImageFix" result="effect1_dropShadow_7138_80076"/>
<feBlend mode="normal" in="SourceGraphic" in2="effect1_dropShadow_7138_80076" result="shape"/>
</filter>
<filter id="filter3_d_7138_80076" x="191.046" y="93.0462" width="9.90764" height="9.90764" filterUnits="userSpaceOnUse" color-interpolation-filters="sRGB">
<feFlood flood-opacity="0" result="BackgroundImageFix"/>
<feColorMatrix in="SourceAlpha" type="matrix" values="0 0 0 0 0 0 0 0 0 0 0 0 0 0 0 0 0 0 127 0" result="hardAlpha"/>
<feOffset/>
<feGaussianBlur stdDeviation="0.976909"/>
<feComposite in2="hardAlpha" operator="out"/>
<feColorMatrix type="matrix" values="0 0 0 0 0 0 0 0 0 0 0 0 0 0 0 0 0 0 0.05 0"/>
<feBlend mode="normal" in2="BackgroundImageFix" result="effect1_dropShadow_7138_80076"/>
<feBlend mode="normal" in="SourceGraphic" in2="effect1_dropShadow_7138_80076" result="shape"/>
</filter>
<filter id="filter4_d_7138_80076" x="178.046" y="90.0462" width="9.90764" height="9.90764" filterUnits="userSpaceOnUse" color-interpolation-filters="sRGB">
<feFlood flood-opacity="0" result="BackgroundImageFix"/>
<feColorMatrix in="SourceAlpha" type="matrix" values="0 0 0 0 0 0 0 0 0 0 0 0 0 0 0 0 0 0 127 0" result="hardAlpha"/>
<feOffset/>
<feGaussianBlur stdDeviation="0.976909"/>
<feComposite in2="hardAlpha" operator="out"/>
<feColorMatrix type="matrix" values="0 0 0 0 0 0 0 0 0 0 0 0 0 0 0 0 0 0 0.05 0"/>
<feBlend mode="normal" in2="BackgroundImageFix" result="effect1_dropShadow_7138_80076"/>
<feBlend mode="normal" in="SourceGraphic" in2="effect1_dropShadow_7138_80076" result="shape"/>
</filter>
<filter id="filter5_d_7138_80076" x="162.046" y="99.0462" width="9.90764" height="9.90764" filterUnits="userSpaceOnUse" color-interpolation-filters="sRGB">
<feFlood flood-opacity="0" result="BackgroundImageFix"/>
<feColorMatrix in="SourceAlpha" type="matrix" values="0 0 0 0 0 0 0 0 0 0 0 0 0 0 0 0 0 0 127 0" result="hardAlpha"/>
<feOffset/>
<feGaussianBlur stdDeviation="0.976909"/>
<feComposite in2="hardAlpha" operator="out"/>
<feColorMatrix type="matrix" values="0 0 0 0 0 0 0 0 0 0 0 0 0 0 0 0 0 0 0.05 0"/>
<feBlend mode="normal" in2="BackgroundImageFix" result="effect1_dropShadow_7138_80076"/>
<feBlend mode="normal" in="SourceGraphic" in2="effect1_dropShadow_7138_80076" result="shape"/>
</filter>
<filter id="filter6_d_7138_80076" x="150.046" y="99.0462" width="9.90764" height="9.90764" filterUnits="userSpaceOnUse" color-interpolation-filters="sRGB">
<feFlood flood-opacity="0" result="BackgroundImageFix"/>
<feColorMatrix in="SourceAlpha" type="matrix" values="0 0 0 0 0 0 0 0 0 0 0 0 0 0 0 0 0 0 127 0" result="hardAlpha"/>
<feOffset/>
<feGaussianBlur stdDeviation="0.976909"/>
<feComposite in2="hardAlpha" operator="out"/>
<feColorMatrix type="matrix" values="0 0 0 0 0 0 0 0 0 0 0 0 0 0 0 0 0 0 0.05 0"/>
<feBlend mode="normal" in2="BackgroundImageFix" result="effect1_dropShadow_7138_80076"/>
<feBlend mode="normal" in="SourceGraphic" in2="effect1_dropShadow_7138_80076" result="shape"/>
</filter>
<filter id="filter7_d_7138_80076" x="136.046" y="107.046" width="9.90764" height="9.90764" filterUnits="userSpaceOnUse" color-interpolation-filters="sRGB">
<feFlood flood-opacity="0" result="BackgroundImageFix"/>
<feColorMatrix in="SourceAlpha" type="matrix" values="0 0 0 0 0 0 0 0 0 0 0 0 0 0 0 0 0 0 127 0" result="hardAlpha"/>
<feOffset/>
<feGaussianBlur stdDeviation="0.976909"/>
<feComposite in2="hardAlpha" operator="out"/>
<feColorMatrix type="matrix" values="0 0 0 0 0 0 0 0 0 0 0 0 0 0 0 0 0 0 0.05 0"/>
<feBlend mode="normal" in2="BackgroundImageFix" result="effect1_dropShadow_7138_80076"/>
<feBlend mode="normal" in="SourceGraphic" in2="effect1_dropShadow_7138_80076" result="shape"/>
</filter>
<filter id="filter8_d_7138_80076" x="121.046" y="102.046" width="9.90764" height="9.90764" filterUnits="userSpaceOnUse" color-interpolation-filters="sRGB">
<feFlood flood-opacity="0" result="BackgroundImageFix"/>
<feColorMatrix in="SourceAlpha" type="matrix" values="0 0 0 0 0 0 0 0 0 0 0 0 0 0 0 0 0 0 127 0" result="hardAlpha"/>
<feOffset/>
<feGaussianBlur stdDeviation="0.976909"/>
<feComposite in2="hardAlpha" operator="out"/>
<feColorMatrix type="matrix" values="0 0 0 0 0 0 0 0 0 0 0 0 0 0 0 0 0 0 0.05 0"/>
<feBlend mode="normal" in2="BackgroundImageFix" result="effect1_dropShadow_7138_80076"/>
<feBlend mode="normal" in="SourceGraphic" in2="effect1_dropShadow_7138_80076" result="shape"/>
</filter>
<filter id="filter9_d_7138_80076" x="61.0462" y="102.046" width="9.90764" height="9.90764" filterUnits="userSpaceOnUse" color-interpolation-filters="sRGB">
<feFlood flood-opacity="0" result="BackgroundImageFix"/>
<feColorMatrix in="SourceAlpha" type="matrix" values="0 0 0 0 0 0 0 0 0 0 0 0 0 0 0 0 0 0 127 0" result="hardAlpha"/>
<feOffset/>
<feGaussianBlur stdDeviation="0.976909"/>
<feComposite in2="hardAlpha" operator="out"/>
<feColorMatrix type="matrix" values="0 0 0 0 0 0 0 0 0 0 0 0 0 0 0 0 0 0 0.05 0"/>
<feBlend mode="normal" in2="BackgroundImageFix" result="effect1_dropShadow_7138_80076"/>
<feBlend mode="normal" in="SourceGraphic" in2="effect1_dropShadow_7138_80076" result="shape"/>
</filter>
<filter id="filter10_d_7138_80076" x="106.046" y="95.0462" width="9.90764" height="9.90764" filterUnits="userSpaceOnUse" color-interpolation-filters="sRGB">
<feFlood flood-opacity="0" result="BackgroundImageFix"/>
<feColorMatrix in="SourceAlpha" type="matrix" values="0 0 0 0 0 0 0 0 0 0 0 0 0 0 0 0 0 0 127 0" result="hardAlpha"/>
<feOffset/>
<feGaussianBlur stdDeviation="0.976909"/>
<feComposite in2="hardAlpha" operator="out"/>
<feColorMatrix type="matrix" values="0 0 0 0 0 0 0 0 0 0 0 0 0 0 0 0 0 0 0.05 0"/>
<feBlend mode="normal" in2="BackgroundImageFix" result="effect1_dropShadow_7138_80076"/>
<feBlend mode="normal" in="SourceGraphic" in2="effect1_dropShadow_7138_80076" result="shape"/>
</filter>
<filter id="filter11_d_7138_80076" x="46.0462" y="95.0462" width="9.90764" height="9.90764" filterUnits="userSpaceOnUse" color-interpolation-filters="sRGB">
<feFlood flood-opacity="0" result="BackgroundImageFix"/>
<feColorMatrix in="SourceAlpha" type="matrix" values="0 0 0 0 0 0 0 0 0 0 0 0 0 0 0 0 0 0 127 0" result="hardAlpha"/>
<feOffset/>
<feGaussianBlur stdDeviation="0.976909"/>
<feComposite in2="hardAlpha" operator="out"/>
<feColorMatrix type="matrix" values="0 0 0 0 0 0 0 0 0 0 0 0 0 0 0 0 0 0 0.05 0"/>
<feBlend mode="normal" in2="BackgroundImageFix" result="effect1_dropShadow_7138_80076"/>
<feBlend mode="normal" in="SourceGraphic" in2="effect1_dropShadow_7138_80076" result="shape"/>
</filter>
<filter id="filter12_d_7138_80076" x="30.0462" y="104.046" width="9.90764" height="9.90764" filterUnits="userSpaceOnUse" color-interpolation-filters="sRGB">
<feFlood flood-opacity="0" result="BackgroundImageFix"/>
<feColorMatrix in="SourceAlpha" type="matrix" values="0 0 0 0 0 0 0 0 0 0 0 0 0 0 0 0 0 0 127 0" result="hardAlpha"/>
<feOffset/>
<feGaussianBlur stdDeviation="0.976909"/>
<feComposite in2="hardAlpha" operator="out"/>
<feColorMatrix type="matrix" values="0 0 0 0 0 0 0 0 0 0 0 0 0 0 0 0 0 0 0.05 0"/>
<feBlend mode="normal" in2="BackgroundImageFix" result="effect1_dropShadow_7138_80076"/>
<feBlend mode="normal" in="SourceGraphic" in2="effect1_dropShadow_7138_80076" result="shape"/>
</filter>
<filter id="filter13_d_7138_80076" x="18.0462" y="96.0462" width="9.90764" height="9.90764" filterUnits="userSpaceOnUse" color-interpolation-filters="sRGB">
<feFlood flood-opacity="0" result="BackgroundImageFix"/>
<feColorMatrix in="SourceAlpha" type="matrix" values="0 0 0 0 0 0 0 0 0 0 0 0 0 0 0 0 0 0 127 0" result="hardAlpha"/>
<feOffset/>
<feGaussianBlur stdDeviation="0.976909"/>
<feComposite in2="hardAlpha" operator="out"/>
<feColorMatrix type="matrix" values="0 0 0 0 0 0 0 0 0 0 0 0 0 0 0 0 0 0 0.05 0"/>
<feBlend mode="normal" in2="BackgroundImageFix" result="effect1_dropShadow_7138_80076"/>
<feBlend mode="normal" in="SourceGraphic" in2="effect1_dropShadow_7138_80076" result="shape"/>
</filter>
<filter id="filter14_d_7138_80076" x="90.0462" y="98.0462" width="9.90764" height="9.90764" filterUnits="userSpaceOnUse" color-interpolation-filters="sRGB">
<feFlood flood-opacity="0" result="BackgroundImageFix"/>
<feColorMatrix in="SourceAlpha" type="matrix" values="0 0 0 0 0 0 0 0 0 0 0 0 0 0 0 0 0 0 127 0" result="hardAlpha"/>
<feOffset/>
<feGaussianBlur stdDeviation="0.976909"/>
<feComposite in2="hardAlpha" operator="out"/>
<feColorMatrix type="matrix" values="0 0 0 0 0 0 0 0 0 0 0 0 0 0 0 0 0 0 0.05 0"/>
<feBlend mode="normal" in2="BackgroundImageFix" result="effect1_dropShadow_7138_80076"/>
<feBlend mode="normal" in="SourceGraphic" in2="effect1_dropShadow_7138_80076" result="shape"/>
</filter>
<filter id="filter15_d_7138_80076" x="74.0462" y="96.0462" width="9.90764" height="9.90764" filterUnits="userSpaceOnUse" color-interpolation-filters="sRGB">
<feFlood flood-opacity="0" result="BackgroundImageFix"/>
<feColorMatrix in="SourceAlpha" type="matrix" values="0 0 0 0 0 0 0 0 0 0 0 0 0 0 0 0 0 0 127 0" result="hardAlpha"/>
<feOffset/>
<feGaussianBlur stdDeviation="0.976909"/>
<feComposite in2="hardAlpha" operator="out"/>
<feColorMatrix type="matrix" values="0 0 0 0 0 0 0 0 0 0 0 0 0 0 0 0 0 0 0.05 0"/>
<feBlend mode="normal" in2="BackgroundImageFix" result="effect1_dropShadow_7138_80076"/>
<feBlend mode="normal" in="SourceGraphic" in2="effect1_dropShadow_7138_80076" result="shape"/>
</filter>
<filter id="filter16_d_7138_80076" x="216.046" y="107.046" width="9.90764" height="9.90764" filterUnits="userSpaceOnUse" color-interpolation-filters="sRGB">
<feFlood flood-opacity="0" result="BackgroundImageFix"/>
<feColorMatrix in="SourceAlpha" type="matrix" values="0 0 0 0 0 0 0 0 0 0 0 0 0 0 0 0 0 0 127 0" result="hardAlpha"/>
<feOffset/>
<feGaussianBlur stdDeviation="0.976909"/>
<feComposite in2="hardAlpha" operator="out"/>
<feColorMatrix type="matrix" values="0 0 0 0 0 0 0 0 0 0 0 0 0 0 0 0 0 0 0.05 0"/>
<feBlend mode="normal" in2="BackgroundImageFix" result="effect1_dropShadow_7138_80076"/>
<feBlend mode="normal" in="SourceGraphic" in2="effect1_dropShadow_7138_80076" result="shape"/>
</filter>
<filter id="filter17_d_7138_80076" x="254.046" y="137.046" width="9.90764" height="9.90764" filterUnits="userSpaceOnUse" color-interpolation-filters="sRGB">
<feFlood flood-opacity="0" result="BackgroundImageFix"/>
<feColorMatrix in="SourceAlpha" type="matrix" values="0 0 0 0 0 0 0 0 0 0 0 0 0 0 0 0 0 0 127 0" result="hardAlpha"/>
<feOffset/>
<feGaussianBlur stdDeviation="0.976909"/>
<feComposite in2="hardAlpha" operator="out"/>
<feColorMatrix type="matrix" values="0 0 0 0 0 0 0 0 0 0 0 0 0 0 0 0 0 0 0.05 0"/>
<feBlend mode="normal" in2="BackgroundImageFix" result="effect1_dropShadow_7138_80076"/>
<feBlend mode="normal" in="SourceGraphic" in2="effect1_dropShadow_7138_80076" result="shape"/>
</filter>
</defs>
</svg>
